<svg xmlns="http://www.w3.org/2000/svg" xmlns:xlink="http://www.w3.org/1999/xlink" viewBox="0 0 270.85 44.7"><defs><style>.cls-1,.cls-4,.cls-6,.cls-8,.cls-9{fill:none;}.cls-2{fill:#d3af45;}.cls-3{clip-path:url(#clip-path);}.cls-4{stroke:#d3af45;}.cls-4,.cls-8,.cls-9{stroke-linecap:round;stroke-linejoin:round;}.cls-4,.cls-6,.cls-8{stroke-width:4px;}.cls-5{fill:#3cb185;}.cls-6{stroke:#3cb185;stroke-miterlimit:10;}.cls-7{fill:#f192bc;}.cls-8{stroke:#f192bc;}.cls-9{stroke:#e53b18;stroke-width:7px;}</style><clipPath id="clip-path" transform="translate(-3.08 -1.76)"><rect class="cls-1" width="275.69" height="48.22"/></clipPath></defs><title>logolu</title><g id="Capa_2" data-name="Capa 2"><g id="Capa_1-2" data-name="Capa 1"><polygon class="cls-2" points="94.69 2 72.46 42.7 116.91 42.7 94.69 2"/><g class="cls-3"><polygon class="cls-4" points="94.69 2 72.46 42.7 116.91 42.7 94.69 2"/><path class="cls-5" d="M175.34,44.46c10.51,0,19-9.11,19-20.35s-8.52-20.35-19-20.35-19,9.11-19,20.35,8.52,20.35,19,20.35" transform="translate(-3.08 -1.76)"/><ellipse class="cls-6" cx="172.26" cy="22.35" rx="19.03" ry="20.35"/></g><rect class="cls-7" x="230.8" y="2" width="38.05" height="40.7"/><g class="cls-3"><rect class="cls-8" x="230.8" y="2" width="38.05" height="40.7"/><line class="cls-9" x1="3.5" y1="6.38" x2="34.98" y2="38.29"/><line class="cls-9" x1="3.5" y1="38.29" x2="34.98" y2="6.38"/></g></g></g></svg>